PathFileType  4	(X/Y/Z) C:\Users\antoi\Documents\MyRepositories\mobilecap\ResultsAnalysis
DataRate	CameraRate	NumFrames	NumMarkers	Units	OrigDataRate	OrigDataStartFrame	OrigNumFrames
100.0	100.0	4	51	mm	100.0	499	1328
Frame#	Time	r_knee			r_shank_antsup			r_ankle			r_calc			r_5meta			r_toe			L_knee			L_shank_antsup			L_ankle			L_calc			L_5meta			L_toe			r_sh2			r_sh3			r_sh4			L_sh2			L_sh3			r_thigh1			r_thigh2			r_thigh3			r_thigh4			r_thigh5			L_thigh1			L_thigh2			L_thigh3			L_thigh4			r.ASIS			r.PSIS			L.ASIS			L.PSIS			C7			R_Shoulder			L_Shoulder			R_Sternum			L_Sternum			R_humerus			R_elbow_med			R_elbow_lat			R_forearm			R_wrist_radius			R_wrist_ulna			L_humerus			L_elbow_med			L_elbow_lat			L_forearm			L_wrist_radius			L_wrist_ulna			R_HJC			L_HJC			R_HJC_reg			L_HJC_reg			
		X1	Y1	Z1	X2	Y2	Z2	X3	Y3	Z3	X4	Y4	Z4	X5	Y5	Z5	X6	Y6	Z6	X7	Y7	Z7	X8	Y8	Z8	X9	Y9	Z9	X10	Y10	Z10	X11	Y11	Z11	X12	Y12	Z12	X13	Y13	Z13	X14	Y14	Z14	X15	Y15	Z15	X16	Y16	Z16	X17	Y17	Z17	X18	Y18	Z18	X19	Y19	Z19	X20	Y20	Z20	X21	Y21	Z21	X22	Y22	Z22	X23	Y23	Z23	X24	Y24	Z24	X25	Y25	Z25	X26	Y26	Z26	X27	Y27	Z27	X28	Y28	Z28	X29	Y29	Z29	X30	Y30	Z30	X31	Y31	Z31	X32	Y32	Z32	X33	Y33	Z33	X34	Y34	Z34	X35	Y35	Z35	X36	Y36	Z36	X37	Y37	Z37	X38	Y38	Z38	X39	Y39	Z39	X40	Y40	Z40	X41	Y41	Z41	X42	Y42	Z42	X43	Y43	Z43	X44	Y44	Z44	X45	Y45	Z45	X46	Y46	Z46	X47	Y47	Z47	X48	Y48	Z48	X49	Y49	Z49	X50	Y50	Z50	X51	Y51	Z51	

499	4.98000000	-143.84986	502.65268	-387.46162	-98.05477	382.58853	-394.53439	-284.59121	98.92258	-412.75627	-350.59264	64.10821	-463.25631	-163.69976	39.41515	-347.60715	-119.26907	62.98058	-416.45963	-154.24482	492.75443	-960.36466	-97.18118	390.68948	-948.59091	-284.52343	92.19425	-919.85830	-353.00997	69.42393	-868.90774	-151.47372	34.07918	-954.63557	-118.19118	60.55802	-887.37732	-132.63182	274.11584	-422.41933	-163.78741	391.18991	-353.70424	-190.28773	276.93666	-360.05336	-177.79312	413.38848	-983.27407	-195.04599	292.95401	-987.53687	-344.87243	634.79161	-477.21289	-234.37696	624.40077	-458.21366	-223.51356	598.78332	-399.37097	-366.18255	570.79813	-385.71511	-247.16527	553.90064	-376.19147	-377.62375	611.15856	-885.42237	-245.73703	604.42839	-918.03025	-398.36954	515.11613	-939.94075	-262.64408	502.87512	-964.75883	-477.89862	637.54603	-544.64383	-581.32998	685.28393	-619.67180	-428.72719	610.02389	-774.65682	-579.43798	679.94225	-715.43095	-290.86412	1086.83995	-669.37766	-196.13249	1015.36519	-489.07335	-193.18336	1013.21159	-830.57644	-164.86794	974.89603	-642.24514	-172.40254	969.58760	-683.87191	-150.14635	873.37379	-404.30579	-172.14850	639.63573	-398.15653	-132.49901	688.83808	-324.60417	-46.98531	781.21493	-432.53461	19.37821	831.37119	-509.97657	52.28472	804.33198	-508.62832	-136.23773	870.29905	-909.92384	-146.69935	635.73128	-914.84169	-89.89025	685.85830	-963.08133	-49.70494	774.62975	-832.06466	17.75005	823.89026	-754.30396	54.08598	793.23008	-759.80293	-534.44238	562.16587	-560.11507	-509.15876	534.54411	-770.19694	-530.35241	574.40459	-572.82118	-527.26956	565.70075	-728.84342	
500	4.99000000	-144.67503	502.81450	-388.00364	-98.56673	382.95233	-394.90527	-284.64624	98.93177	-412.68789	-350.66341	64.14989	-463.11561	-163.68697	39.39302	-347.69567	-119.30708	63.05810	-416.53144	-155.20417	493.13013	-960.29079	-97.78437	391.53272	-948.67550	-284.55838	92.23938	-919.89299	-353.03504	69.40834	-868.92828	-151.46537	34.17405	-954.57282	-118.20751	60.64643	-887.32985	-132.99057	274.47451	-422.68207	-164.11054	391.44093	-353.92751	-190.72161	277.34856	-360.03400	-178.39332	413.69297	-983.06972	-195.39601	293.23982	-987.45639	-346.63252	633.77741	-477.38301	-235.86375	624.06407	-458.69198	-224.91854	598.54164	-399.78834	-367.36974	569.73529	-385.97525	-248.23095	553.43879	-376.70037	-379.52280	609.87967	-885.25427	-247.51702	603.95217	-917.46615	-399.50296	513.58745	-939.53706	-263.69179	502.22728	-964.19475	-479.76052	635.62408	-544.38037	-584.23158	682.34777	-619.73249	-430.89216	608.75937	-774.73161	-582.40922	677.08856	-715.46451	-296.51479	1086.45789	-669.82441	-201.65670	1015.94804	-489.30231	-198.10426	1013.40672	-830.66629	-169.99417	975.28280	-642.81733	-177.42941	970.00556	-684.25886	-154.98470	873.89122	-404.34899	-176.74822	639.83014	-397.10255	-136.90442	689.55431	-324.31963	-51.60891	781.63463	-432.61129	14.81400	831.70304	-510.18388	47.58472	804.49505	-508.90561	-141.17249	870.35463	-910.52814	-151.78005	635.67966	-915.35988	-95.01822	685.76947	-963.67919	-54.63966	774.74812	-832.88295	12.94758	823.95903	-755.16631	49.28235	793.29766	-760.79363	-535.77816	559.73560	-560.06636	-510.44827	532.38641	-770.17738	-531.75326	571.83539	-572.58895	-528.78115	563.25595	-728.74772	
501	5.00000000	-145.50631	503.15393	-388.44296	-99.17124	383.28320	-395.36559	-284.75500	98.99578	-412.54171	-350.72624	64.15294	-462.96359	-163.64084	39.39905	-347.78409	-119.35116	63.13739	-416.60586	-156.26929	493.43183	-959.91637	-98.82625	392.05941	-948.53040	-284.58061	92.30014	-919.94947	-353.05957	69.39653	-868.94278	-151.45196	34.25803	-954.51619	-118.21510	60.72908	-887.28201	-133.37283	274.78198	-422.89154	-164.53474	391.59268	-354.43006	-190.96225	277.58107	-360.25911	-179.09537	414.06765	-982.88433	-195.73662	293.58814	-987.35532	-348.34579	632.64424	-477.86932	-237.25741	624.10274	-460.20839	-226.28348	598.27731	-400.32414	-368.35365	568.35620	-386.43827	-249.33101	553.00391	-377.23713	-381.39846	608.75474	-885.31483	-249.38172	603.37806	-916.67365	-400.68663	512.27287	-939.33233	-264.80280	501.85263	-963.97368	-482.00224	632.87215	-543.54178	-587.19953	679.49459	-619.63339	-433.34781	607.83381	-775.18510	-585.47102	674.27048	-715.38500	-302.32338	1086.12496	-670.25143	-207.55768	1016.78390	-489.40264	-203.29477	1013.87966	-830.95946	-175.27292	975.79308	-643.29870	-182.57618	970.55898	-684.53016	-159.98762	874.44123	-404.52608	-181.30926	640.31465	-396.72161	-141.43285	690.32676	-324.03008	-56.32466	782.17197	-432.69815	10.08318	832.02534	-510.48787	42.78430	804.80685	-509.22857	-146.25262	870.51034	-911.06820	-156.96371	635.79583	-915.94025	-100.29829	685.86948	-964.34051	-59.67650	775.04634	-833.78910	8.00425	824.17964	-756.00851	44.30987	793.46361	-761.71281	-537.63380	556.77712	-560.35556	-512.14160	530.63725	-770.59516	-534.03107	569.49585	-571.97494	-531.20090	560.93824	-728.81585	
502	5.01000000	-146.27233	503.57859	-388.88740	-99.77508	383.58481	-395.95820	-284.86424	99.07300	-412.36882	-350.80339	64.09687	-462.84050	-163.63671	39.44989	-347.80956	-119.38146	63.23240	-416.70057	-157.39124	493.62249	-959.36633	-100.18123	392.31872	-948.19268	-284.60038	92.32804	-919.93542	-353.08109	69.37519	-868.96595	-151.43733	34.33495	-954.46588	-118.21624	60.81497	-887.25059	-133.75230	275.02640	-423.12002	-165.07674	391.79934	-354.96577	-191.00852	277.60585	-360.73536	-179.92060	414.43323	-982.58840	-196.18811	293.93711	-987.18617	-350.02522	631.33627	-478.69583	-239.04114	624.12072	-462.14950	-227.67018	598.01559	-401.03636	-369.42588	567.09678	-386.87935	-250.42718	552.69090	-377.62154	-383.27751	607.68745	-885.25869	-251.29943	602.89443	-915.85406	-401.89758	511.10501	-939.31952	-265.94848	501.82926	-964.20428	-484.21185	629.78858	-542.94822	-590.12305	676.69857	-619.55981	-435.76210	606.64747	-775.50559	-588.44912	671.45288	-715.38157	-308.23201	1085.87045	-670.67642	-213.41059	1017.52295	-489.58049	-208.74319	1014.47211	-831.49019	-180.62712	976.45634	-643.54291	-187.88483	971.19010	-684.76134	-165.16004	875.07191	-404.62815	-185.86635	641.01805	-396.79259	-146.08546	691.11262	-323.75786	-61.11129	782.76176	-432.83246	5.15297	832.44467	-510.79222	37.93289	805.29502	-509.53669	-151.45082	870.72447	-911.49326	-162.25983	636.05229	-916.55244	-105.73481	686.19247	-965.06837	-64.80726	775.36670	-834.68359	2.95157	824.54335	-756.91556	39.21936	793.77591	-762.66840	-539.67639	553.66056	-560.75428	-514.00910	528.79783	-771.13149	-536.45469	567.25412	-571.56652	-533.70805	558.64429	-728.83443	
